<svg width="189" height="13" viewBox="0 0 189 13" fill="none" xmlns="http://www.w3.org/2000/svg">
<g clip-path="url(#clip0_6812_137)">
<path d="M184.392 5.50075H181.516C180.876 5.50075 180.473 5.0971 180.473 4.54209C180.473 3.98708 180.952 3.65912 181.516 3.65912H186.712L187.915 1.01861H181.516C178.875 1.01861 177.353 2.61637 177.353 4.70187C177.353 6.93873 178.791 8.22535 181.112 8.22535H183.988C184.627 8.22535 185.031 8.62899 185.031 9.184C185.031 9.74742 184.627 10.1427 183.988 10.1427H177.748V12.7832H183.988C186.628 12.7832 188.15 11.2611 188.15 9.02423C188.15 6.77896 186.788 5.50075 184.392 5.50075ZM172.955 5.50075H170.079C169.44 5.50075 169.036 5.0971 169.036 4.54209C169.036 3.98708 169.516 3.65912 170.079 3.65912H175.276L176.478 1.01861H170.079C167.438 1.01861 165.916 2.61637 165.916 4.70187C165.916 6.93873 167.354 8.22535 169.675 8.22535H172.551C173.19 8.22535 173.594 8.62899 173.594 9.184C173.594 9.74742 173.19 10.1427 172.551 10.1427H166.312V12.7832H172.551C175.192 12.7832 176.714 11.2611 176.714 9.02423C176.714 6.77896 175.352 5.50075 172.955 5.50075ZM154.715 12.6991H164.554V10.0586H157.835V8.14126H164.394V5.50075H157.835V3.65912H164.554V1.02702H154.715V12.6991ZM148.551 5.98008H145.272V3.65912H148.551C149.51 3.65912 149.989 4.22254 149.989 4.86165C149.914 5.50075 149.434 5.98008 148.551 5.98008ZM153.118 4.78596C153.118 2.5491 151.52 1.02702 148.955 1.02702H142.236V12.7075H145.356V8.62899H146.474L149.998 12.7075H153.841L149.998 8.46922C151.915 8.06557 153.118 6.61918 153.118 4.78596ZM136.316 6.22394H132.952V3.66753H136.316C137.275 3.66753 137.754 4.23095 137.754 4.94574C137.678 5.66053 137.199 6.22394 136.316 6.22394ZM136.635 1.02702H129.832V12.7075H132.961V8.86445H136.56C139.2 8.86445 140.798 7.1826 140.798 4.94574C140.798 2.62478 139.2 1.02702 136.635 1.02702ZM129.277 1.02702H125.275L122.239 4.5505L119.195 1.02702H115.116L120.237 6.78737L115.041 12.7075H119.043L122.163 9.02423L125.367 12.7075H129.446L124.165 6.71168L129.277 1.02702ZM104.722 12.6991H114.561V10.0586H107.842V8.14126H114.401V5.50075H107.842V3.65912H114.561V1.02702H104.722V12.6991ZM93.7567 8.14126L88.9551 1.01861H85.0363V12.6991H88.1562V5.25688L93.0335 12.6991H96.7925V1.02702H93.7567V8.14126ZM75.6012 7.74602L77.1989 3.82731L78.7967 7.74602H75.6012ZM75.2816 1.02702L70.1604 12.7075H73.5998L74.5584 10.3108H79.9992L81.042 12.7075H84.5654L79.2844 1.02702H75.2816ZM65.0392 6.94714V6.70327C65.0392 4.94574 65.9978 3.74321 67.9992 3.74321H71.5227V1.02702H67.7638C63.9207 1.02702 61.9278 3.50776 61.9278 6.70327V6.94714C61.9278 10.5463 64.1646 12.6234 67.604 12.6234H68.6467L69.9249 9.98288H68.0833C66.2417 10.067 65.0392 9.02423 65.0392 6.94714ZM57.2018 1.02702V12.7075H60.3216V1.02702H57.2018ZM50.9621 5.98008H47.6825V3.65912H50.9621C51.9208 3.65912 52.4001 4.22254 52.4001 4.86165C52.4001 5.50075 51.9208 5.98008 50.9621 5.98008ZM55.5199 4.78596C55.5199 2.5491 53.9222 1.02702 51.3573 1.02702H44.6384V12.7075H47.7582V8.62899H48.8766L52.4001 12.7075H56.3188L52.4758 8.46922C54.4015 8.06557 55.5199 6.61918 55.5199 4.78596ZM32.7225 12.6991H42.5613V10.0586H35.8423V8.14126H42.4015V5.50075H35.8423V3.65912H42.5613V1.02702H32.7225V12.6991ZM22.808 8.38512L20.1675 1.02702H15.2901V12.7075H18.3259V4.30663L21.3616 12.7075H24.1619L27.2817 4.30663V12.7075H30.3174V1.02702H25.4401L22.808 8.38512ZM5.84654 7.74602L7.44429 3.82731L9.04205 7.74602C9.05046 7.74602 5.84654 7.74602 5.84654 7.74602ZM5.4513 1.02702L0.330078 12.7075H3.76945L4.7281 10.3108H10.1689L11.2116 12.7075H14.7351L9.5382 1.02702H5.4513Z" fill="#323238"/>
</g>
<defs>
<clipPath id="clip0_6812_137">
<rect width="187.98" height="12" fill="white" transform="translate(0.330078 0.867249)"/>
</clipPath>
</defs>
</svg>
