<svg width="100" height="33" viewBox="0 0 100 33" fill="none" xmlns="http://www.w3.org/2000/svg">
<path d="M73.7961 4.05672L71.8613 8.15152H75.7415L73.7961 4.05672ZM51.4692 6.59419C51.834 6.42801 52.0487 6.06655 52.0487 5.61767C52.0487 5.1778 51.8231 4.85923 51.4585 4.70953C51.1263 4.54358 50.6152 4.52441 50.1252 4.52441H46.6637V6.80594H50.0788C50.6258 6.80606 51.0828 6.79905 51.4692 6.59419ZM7.11411 4.05672L5.20116 8.15152H9.0386L7.11411 4.05672ZM96.1782 30.2891H90.7495V28.086H96.1563C96.6923 28.086 97.0677 28.0247 97.2937 27.8315C97.5074 27.6594 97.6282 27.416 97.626 27.1616C97.626 26.8622 97.4898 26.6245 97.2824 26.4823C97.0788 26.3255 96.7815 26.2541 96.2919 26.2541C93.6524 26.1758 90.3595 26.3252 90.3595 23.0741C90.3595 21.5841 91.4429 20.0155 94.3929 20.0155H99.9925V17.9713H94.79C93.22 17.9713 92.0792 18.2997 91.2716 18.8105V17.9713H83.5765C82.3461 17.9713 80.9018 18.2377 80.2187 18.8105V17.9713H66.4764V18.8105C65.3829 18.1214 63.5373 17.9713 62.686 17.9713H53.6217V18.8105C52.7567 18.0787 50.8322 17.9713 49.6599 17.9713H39.5154L37.1944 20.1655L35.0201 17.9713H19.8663V32.3082H34.7342L37.1259 30.0789L39.3791 32.3082L48.5437 32.3152V28.9426H49.445C50.6609 28.9597 52.095 28.9166 53.3606 28.4388V32.3077H60.9199V28.5709H61.2845C61.7496 28.5709 61.7958 28.588 61.7958 28.9941V32.3069H84.7599C86.2178 32.3069 87.7419 31.9813 88.5856 31.3892V32.3069H95.8698C97.3855 32.3069 98.8659 32.1213 99.9922 31.6463V28.9756C99.3096 29.8476 97.9784 30.2897 96.1779 30.2897L96.1782 30.2891ZM49.5654 26.904H46.0577V30.35H40.5938L37.1323 26.9491L33.5351 30.35H22.4V20.0761H33.7064L37.1649 23.4438L40.7405 20.0761H49.7231C51.954 20.0761 54.4605 20.6156 54.4605 23.4608C54.4605 26.3148 52.0226 26.904 49.5654 26.904ZM66.432 26.4381C66.8291 26.9396 66.8864 27.4078 66.8979 28.3134V30.3501H64.0754V29.0649C64.0754 28.4468 64.1437 27.5315 63.621 27.0538C63.2108 26.6859 62.5843 26.598 61.5585 26.598H58.5543V30.3501H55.7299V20.0762H62.2196C63.6433 20.0762 64.6796 20.1315 65.6022 20.5609C66.4893 21.0291 67.0477 21.6704 67.0477 22.8425C67.0474 24.4822 65.7952 25.3187 65.0552 25.5758C65.6806 25.7774 66.1919 26.1388 66.432 26.4381ZM78.0442 22.2009H71.4614V24.0686H77.8833V26.1649H71.4614V28.2091L78.0442 28.2182V30.35H68.6619V20.0761H78.0442V22.2009ZM85.2678 30.3499H79.7928V28.1468H85.246C85.7793 28.1468 86.1574 28.0852 86.3943 27.8923C86.5875 27.7335 86.7265 27.5024 86.7265 27.2226C86.7265 26.923 86.576 26.6853 86.3834 26.5427C86.1683 26.3861 85.8715 26.3152 85.3823 26.3152C82.7533 26.2364 79.461 26.3859 79.461 23.135C79.461 21.6447 80.5332 20.0762 83.4802 20.0762H89.1161V22.2626H83.9591C83.4479 22.2626 83.1156 22.2797 82.8331 22.4486C82.5247 22.6151 82.4106 22.8617 82.4106 23.1874C82.4106 23.575 82.6722 23.8388 83.0256 23.9528C83.3223 24.0429 83.6406 24.0692 84.1196 24.0692L85.6331 24.1053C87.1586 24.1372 88.2065 24.3682 88.8433 24.9313C89.3902 25.4259 89.6842 26.0506 89.6842 27.1079C89.6839 29.3181 88.1028 30.3499 85.2678 30.3499ZM63.4652 22.3666C63.1256 22.1904 62.6243 22.181 62.1241 22.181H58.6624V24.4884H62.0778C62.6246 24.4884 63.0896 24.4714 63.4652 24.2766C63.8296 24.0843 64.0477 23.7299 64.0477 23.2905C64.0477 22.8511 63.8296 22.533 63.4652 22.3666ZM94.8742 22.1808C94.3629 22.1808 94.0228 22.1977 93.7366 22.3664C93.44 22.533 93.3261 22.7797 93.3261 23.1056C93.3261 23.4929 93.5765 23.7568 93.9407 23.871C94.2375 23.9611 94.5556 23.9874 95.0238 23.9874L96.5478 24.0228C98.085 24.0561 99.1116 24.2871 99.7374 24.8502C99.8514 24.9283 99.9198 25.0161 99.9982 25.1043V22.181H94.8745L94.8742 22.1808ZM49.6627 22.1808H45.9973V24.7975H49.6301C50.7101 24.7975 51.3818 24.3293 51.3823 23.4406C51.3818 22.5421 50.6776 22.1808 49.6627 22.1808ZM25.1999 22.1808V24.0487H31.3712V26.145H25.1999V28.189H32.1113L35.3224 25.175L32.2477 22.1808H25.1999ZM43.2473 29.3655V21.1287L38.9314 25.1808L43.2473 29.3655ZM25.4358 12.8701V14.6404H48.9217L48.9108 10.8954H49.3653C49.6836 10.9051 49.7761 10.9307 49.7761 11.3896V14.6405H61.9233V13.7686C62.9031 14.2271 64.4268 14.6405 66.432 14.6405H71.5423L72.636 12.3591H75.0608L76.1302 14.6405H85.9778V12.4734L87.4687 14.6404H95.3604V0.315212H87.5507V2.00705L86.4572 0.315212H78.4434V2.00705L77.4392 0.315212H66.6143C64.8022 0.315212 63.2099 0.536085 61.9232 1.15172V0.315212H54.4529V1.15172C53.6341 0.517153 52.5185 0.315212 51.2783 0.315212H23.9873L22.1563 4.01535L20.2758 0.315212H11.68V2.00705L10.7355 0.315212H3.40475L0.000524934 7.1265V12.5748L5.03437 2.30318H9.21116L13.9919 12.0282V2.30318H18.5803L22.2591 9.27119L25.6388 2.30318H30.3192V12.5748H27.4378L27.4273 4.53026L23.3509 12.5748H20.8827L16.7959 4.52313V12.5748H11.078L9.99783 10.2837H4.14475L3.05347 12.5748H0.000396729V14.6412H4.80373L5.88668 12.3597H8.31155L9.39167 14.6412H18.8421V12.8968L19.6855 14.6484H24.5914L25.435 12.8705L25.4358 12.8701ZM62.4447 3.50045C63.3531 2.68065 64.7765 2.3026 66.7137 2.3026H69.4351V4.50349H66.7708C65.7454 4.50349 65.1655 4.63672 64.6078 5.11212C64.1283 5.54452 63.7996 6.3621 63.7996 7.43865C63.7996 8.53915 64.0502 9.33254 64.5724 9.85083C65.0052 10.2573 65.792 10.3806 66.5318 10.3806H67.7947L71.7565 2.30295H75.9684L80.7279 12.0183V2.30307H85.0082L89.9496 9.45665V2.30307H92.8291V12.5743H88.8455L83.517 4.86507V12.5743H77.7919L76.6981 10.2832H70.8583L69.797 12.5743H66.5073C65.141 12.5743 63.411 12.3105 62.4313 11.4382C61.4432 10.5662 60.9296 9.38478 60.9296 7.51706C60.9291 5.99351 61.2359 4.60096 62.4447 3.50045ZM56.6626 2.30271H59.5308V12.5743H56.6626V2.30271ZM43.7305 2.30271H50.1961C51.6324 2.30271 52.6915 2.33602 53.6004 2.79471C54.4896 3.25352 55.0228 3.92338 55.0228 5.06888C55.0228 6.70673 53.7711 7.5527 53.0423 7.80688C53.6572 8.0114 54.1828 8.37262 54.4332 8.67179C54.8301 9.18272 54.8985 9.63908 54.8985 10.5563V12.5742H52.0632L52.0526 11.2789C52.0526 10.6607 52.1202 9.77183 51.6088 9.27796C51.1982 8.91686 50.5719 8.83821 49.5597 8.83821H46.542V12.5743H43.7309L43.7305 2.30271ZM32.3981 2.30271H41.789V4.44167H35.2095V6.29315H41.631V8.39868H35.2095V10.45H41.789V12.5742H32.3981V2.30271Z" fill="#2557D6"/>
</svg>
