<svg width="32" height="11" viewBox="0 0 32 11" fill="none" xmlns="http://www.w3.org/2000/svg">
<g clip-path="url(#clip0_1302_239)">
<path d="M20.9208 0.276681C20.831 0.276721 20.7421 0.294459 20.6592 0.32888C20.5763 0.363301 20.5009 0.41373 20.4375 0.477284C20.3121 0.602661 20.2369 0.779756 20.2369 0.961552V9.22797C20.2369 9.40976 20.309 9.58372 20.4375 9.71224C20.501 9.77578 20.5763 9.82619 20.6593 9.86059C20.7422 9.89498 20.8312 9.91269 20.921 9.91269C21.0108 9.91269 21.0997 9.89498 21.1827 9.86059C21.2656 9.82619 21.341 9.77578 21.4045 9.71224C21.5298 9.58686 21.6051 9.40976 21.6051 9.22797V0.961239C21.6051 0.779442 21.533 0.605482 21.4045 0.47697C21.341 0.413379 21.2656 0.362928 21.1826 0.328506C21.0996 0.294084 21.0107 0.276367 20.9208 0.276367V0.276681ZM10.5014 3.19044C10.5014 2.81243 10.1951 2.50588 9.81807 2.50588C9.441 2.50588 9.13477 2.81243 9.13477 3.19044V9.22734C9.13477 9.60535 9.441 9.9119 9.81807 9.9119C10.1951 9.9119 10.5014 9.60535 10.5014 9.22734V3.19044Z" fill="#5A646E"/>
<path d="M10.6942 0.962614C10.6897 1.19227 10.5954 1.41103 10.4315 1.57195C10.2677 1.73267 10.0473 1.82271 9.81779 1.82271C9.58827 1.82271 9.36791 1.73267 9.20407 1.57195C9.04015 1.41103 8.94585 1.19227 8.94141 0.962614C8.94131 0.729888 9.03365 0.506651 9.19812 0.341998C9.27938 0.260485 9.37594 0.195811 9.48225 0.151682C9.58856 0.107554 9.70253 0.0848389 9.81763 0.0848389C9.93274 0.0848389 10.0467 0.107554 10.153 0.151682C10.2593 0.195811 10.3559 0.260485 10.4372 0.341998C10.6016 0.506651 10.694 0.729888 10.6939 0.962614H10.6942Z" fill="#00AEEF"/>
<path d="M19.0007 4.69063C18.3437 3.20303 16.7894 2.15175 15.0159 2.33354C14.418 2.39675 13.8428 2.59758 13.3356 2.92031C12.8281 3.24325 12.4022 3.67923 12.0912 4.19414C11.7801 4.70933 11.5922 5.28946 11.5423 5.88923C11.4922 6.48916 11.5818 7.09285 11.8034 7.65203C12.025 8.21138 12.3729 8.71192 12.8199 9.11455C13.2669 9.51688 13.8008 9.81039 14.3799 9.97213C14.959 10.1338 15.5677 10.1591 16.1582 10.046C16.7487 9.93284 17.305 9.68441 17.7833 9.32017C17.8638 9.25846 17.9294 9.17953 17.9754 9.08917C18.0215 8.99889 18.0469 8.89922 18.0494 8.79766C18.0546 8.61757 17.988 8.44279 17.8645 8.31168C17.7409 8.18058 17.5703 8.10386 17.3902 8.09837C17.2355 8.09341 17.0837 8.14165 16.9602 8.23504C16.4868 8.60064 15.8982 8.78496 15.3008 8.75472C14.8156 8.72996 14.3478 8.56621 13.953 8.28299C13.5566 8.00016 13.249 7.61014 13.0663 7.15867C13.0414 7.09781 13.0399 7.02989 13.062 6.96797C13.0842 6.90605 13.1285 6.85452 13.1864 6.82329C13.2247 6.80269 13.2676 6.79192 13.3111 6.79195H18.0582C18.2869 6.7929 18.5107 6.72577 18.7012 6.59913C18.8916 6.47248 19.0401 6.29203 19.1277 6.08075C19.186 5.94048 19.2161 5.79009 19.2164 5.63817C19.2068 5.31207 19.1351 4.9908 19.0051 4.69157L19.0007 4.69063ZM15.4196 3.67132C15.9279 3.67144 16.4243 3.82409 16.8449 4.10951C17.2656 4.39526 17.591 4.80067 17.7789 5.27332C17.7948 5.31363 17.8007 5.35718 17.7961 5.40026C17.7914 5.44331 17.7763 5.48457 17.752 5.52045C17.7278 5.55634 17.6952 5.58577 17.657 5.60619C17.6188 5.62666 17.5762 5.63742 17.5329 5.63754H13.3061C13.2627 5.63759 13.2201 5.62682 13.182 5.60619C13.1437 5.58551 13.1111 5.55604 13.0867 5.52062C13.0622 5.48521 13.0472 5.44352 13.0428 5.40026C13.0383 5.35718 13.0442 5.31363 13.06 5.27332C13.2479 4.80067 13.5733 4.39526 13.9941 4.10951C14.4153 3.82551 14.9113 3.673 15.4193 3.67132H15.4196ZM26.5227 8.75723C26.0355 8.75734 25.5585 8.61707 25.1489 8.3532C24.7389 8.08827 24.4127 7.71211 24.2086 7.26869C24.0065 6.82471 23.9364 6.33202 24.0064 5.84929C24.0764 5.36656 24.2837 4.91411 24.6035 4.54582L23.5691 3.66285C23.2343 4.05178 22.9797 4.50314 22.82 4.99091C22.66 5.4787 22.5976 5.99325 22.6366 6.50515C22.6755 7.017 22.8153 7.51631 23.0441 7.97425C23.2761 8.43198 23.5962 8.8394 23.986 9.17317C24.3756 9.50684 24.8272 9.76035 25.315 9.91916C25.8026 10.0779 26.3168 10.1387 26.828 10.0978C27.3393 10.057 27.8374 9.91533 28.2936 9.68094C28.7501 9.44678 29.1558 9.12478 29.4875 8.73341L28.4532 7.85075C28.2152 8.13478 27.9177 8.36311 27.5818 8.51964C27.2462 8.67626 26.8802 8.75726 26.5098 8.75692L26.5227 8.75723Z" fill="#5A646E"/>
<path d="M26.5232 2.31031C25.9639 2.30962 25.4111 2.42991 24.9027 2.66293C24.3938 2.89601 23.9414 3.23622 23.5762 3.6603L24.6074 4.54327C25.0466 4.03707 25.6682 3.72513 26.3366 3.67551C27.005 3.62589 27.6658 3.84262 28.175 4.27841C28.6843 4.71494 29.0008 5.33477 29.0558 6.00328C29.1104 6.6719 28.8989 7.33505 28.4671 7.84852L29.4984 8.73117C29.9782 8.16299 30.2859 7.46967 30.3854 6.73266C30.4847 5.99546 30.3714 5.24523 30.0588 4.57023C29.7463 3.89553 29.2475 3.32424 28.621 2.92371C27.994 2.52467 27.2664 2.31194 26.5232 2.31031V2.31031Z" fill="#00AEEF"/>
<path d="M7.87472 8.26571C7.7569 8.16358 7.60769 8.10481 7.45187 8.09916C7.29605 8.09352 7.14298 8.14134 7.01808 8.23468C6.64219 8.52235 6.19332 8.69911 5.72221 8.74497C5.25111 8.79084 4.77657 8.70398 4.35225 8.49421C3.92789 8.28409 3.57047 7.95988 3.32009 7.55796C3.06974 7.15562 2.93669 6.69139 2.93592 6.21752C2.93514 5.74366 3.06667 5.27899 3.3157 4.87583C3.56452 4.47298 3.92092 4.14763 4.34473 3.93645C4.76833 3.72506 5.24266 3.63654 5.71399 3.68091C6.18532 3.72529 6.6348 3.90078 7.0115 4.18751C7.13495 4.28267 7.28734 4.33254 7.44317 4.32878C7.59899 4.32501 7.74879 4.26784 7.86751 4.16683C7.9443 4.101 8.00542 4.01951 8.04617 3.92767C8.08692 3.83583 8.1076 3.73553 8.10572 3.6346C8.10384 3.53367 8.07877 3.43463 8.03363 3.34467C7.9885 3.25471 7.9233 3.17541 7.844 3.11397C7.26655 2.67194 6.57684 2.40048 5.85301 2.33037C5.12892 2.26001 4.39961 2.39413 3.74792 2.71748C3.09623 3.04083 2.54828 3.54046 2.1663 4.15962C1.78376 4.77883 1.58174 5.49258 1.58301 6.22043C1.58429 6.94828 1.7888 7.66132 2.17351 8.27919C2.55812 8.89642 3.10786 9.39364 3.76048 9.71455C4.4131 10.0355 5.14253 10.1672 5.86618 10.095C6.58969 10.0224 7.27842 9.74868 7.85434 9.30478C7.93262 9.24339 7.99626 9.16536 8.04066 9.07635C8.08506 8.98733 8.1091 8.88956 8.11105 8.7901C8.11305 8.69067 8.09291 8.59203 8.05209 8.50133C8.01127 8.41064 7.95079 8.33016 7.87503 8.26571H7.87472Z" fill="#5A646E"/>
</g>
<defs>
<clipPath id="clip0_1302_239">
<rect width="32" height="10.6624" fill="white"/>
</clipPath>
</defs>
</svg>
