<svg width="128" height="21" viewBox="0 0 128 21" fill="none" xmlns="http://www.w3.org/2000/svg">
<path d="M2.35538 16.0852V4.44881H9.37811V5.69881H3.76447V9.63063H9.01447V10.8806H3.76447V14.8352H9.46902V16.0852H2.35538ZM12.5997 4.44881L15.5997 9.28972H15.6906L18.6906 4.44881H20.3497L16.6906 10.267L20.3497 16.0852H18.6906L15.6906 11.3352H15.5997L12.5997 16.0852H10.9406L14.6906 10.267L10.9406 4.44881H12.5997ZM22.1835 16.0852V4.44881H26.1153C27.0282 4.44881 27.7744 4.61358 28.354 4.94313C28.9373 5.26889 29.3691 5.71017 29.6494 6.26699C29.9297 6.82381 30.0699 7.44502 30.0699 8.13063C30.0699 8.81624 29.9297 9.43934 29.6494 9.99995C29.3729 10.5606 28.9449 11.0075 28.3653 11.3409C27.7858 11.6704 27.0434 11.8352 26.1381 11.8352H23.3199V10.5852H26.0926C26.7176 10.5852 27.2195 10.4772 27.5983 10.2613C27.9771 10.0454 28.2517 9.75373 28.4221 9.38631C28.5964 9.0151 28.6835 8.59654 28.6835 8.13063C28.6835 7.66472 28.5964 7.24805 28.4221 6.88063C28.2517 6.5132 27.9752 6.22533 27.5926 6.01699C27.21 5.80487 26.7024 5.69881 26.0699 5.69881H23.5926V16.0852H22.1835ZM32.3398 16.0852V4.44881H36.2716C37.1807 4.44881 37.9269 4.60411 38.5102 4.91472C39.0935 5.22154 39.5254 5.64389 39.8057 6.18177C40.086 6.71964 40.2261 7.33139 40.2261 8.01699C40.2261 8.7026 40.086 9.31055 39.8057 9.84086C39.5254 10.3712 39.0954 10.7878 38.5159 11.0909C37.9363 11.3901 37.1958 11.5397 36.2943 11.5397H33.1125V10.267H36.2488C36.8701 10.267 37.3701 10.1761 37.7488 9.99427C38.1314 9.81245 38.4079 9.55487 38.5784 9.22154C38.7526 8.88442 38.8398 8.4829 38.8398 8.01699C38.8398 7.55108 38.7526 7.14389 38.5784 6.7954C38.4041 6.44692 38.1257 6.17798 37.7432 5.98858C37.3606 5.7954 36.8549 5.69881 36.2261 5.69881H33.7488V16.0852H32.3398ZM37.817 10.8579L40.6807 16.0852H39.0443L36.2261 10.8579H37.817ZM42.5741 16.0852V4.44881H49.5969V5.69881H43.9832V9.63063H49.2332V10.8806H43.9832V14.8352H49.6878V16.0852H42.5741ZM58.5003 7.3579C58.4321 6.78214 58.1556 6.33517 57.6707 6.01699C57.1859 5.69881 56.5912 5.53972 55.8866 5.53972C55.3715 5.53972 54.9207 5.62305 54.5344 5.78972C54.1518 5.95639 53.8525 6.18555 53.6366 6.47722C53.4245 6.76889 53.3184 7.10033 53.3184 7.47154C53.3184 7.78214 53.3923 8.04919 53.54 8.27267C53.6916 8.49237 53.8847 8.67608 54.1196 8.82381C54.3544 8.96775 54.6006 9.08707 54.8582 9.18177C55.1158 9.27267 55.3525 9.34654 55.5684 9.40336L56.7503 9.72154C57.0533 9.80108 57.3904 9.91093 57.7616 10.0511C58.1366 10.1912 58.4946 10.3825 58.8355 10.6249C59.1802 10.8636 59.4643 11.1704 59.6878 11.5454C59.9113 11.9204 60.023 12.3806 60.023 12.9261C60.023 13.5549 59.8582 14.1231 59.5287 14.6306C59.2029 15.1382 58.7256 15.5416 58.0969 15.8409C57.4719 16.1401 56.7124 16.2897 55.8184 16.2897C54.9851 16.2897 54.2635 16.1553 53.6537 15.8863C53.0476 15.6174 52.5703 15.2424 52.2219 14.7613C51.8772 14.2803 51.6821 13.7215 51.6366 13.0852H53.0912C53.1291 13.5246 53.2768 13.8882 53.5344 14.1761C53.7957 14.4602 54.1253 14.6723 54.523 14.8124C54.9245 14.9488 55.3563 15.017 55.8184 15.017C56.3563 15.017 56.8393 14.9299 57.2673 14.7556C57.6953 14.5776 58.0344 14.3314 58.2844 14.017C58.5344 13.6988 58.6594 13.3276 58.6594 12.9034C58.6594 12.517 58.5514 12.2026 58.3355 11.9602C58.1196 11.7178 57.8355 11.5208 57.4832 11.3693C57.1309 11.2178 56.7503 11.0852 56.3412 10.9715L54.9094 10.5624C54.0003 10.3011 53.2806 9.92798 52.7503 9.44313C52.22 8.95828 51.9548 8.32381 51.9548 7.53972C51.9548 6.8882 52.1309 6.32002 52.4832 5.83517C52.8393 5.34654 53.3166 4.96775 53.915 4.69881C54.5173 4.42608 55.1897 4.28972 55.9321 4.28972C56.6821 4.28972 57.3488 4.42419 57.9321 4.69313C58.5154 4.95828 58.9775 5.32192 59.3184 5.78404C59.6631 6.24616 59.845 6.77078 59.8639 7.3579H58.5003ZM68.7034 7.3579C68.6352 6.78214 68.3587 6.33517 67.8738 6.01699C67.389 5.69881 66.7943 5.53972 66.0898 5.53972C65.5746 5.53972 65.1238 5.62305 64.7375 5.78972C64.3549 5.95639 64.0557 6.18555 63.8398 6.47722C63.6276 6.76889 63.5216 7.10033 63.5216 7.47154C63.5216 7.78214 63.5954 8.04919 63.7432 8.27267C63.8947 8.49237 64.0879 8.67608 64.3227 8.82381C64.5576 8.96775 64.8038 9.08707 65.0613 9.18177C65.3189 9.27267 65.5557 9.34654 65.7716 9.40336L66.9534 9.72154C67.2564 9.80108 67.5935 9.91093 67.9648 10.0511C68.3398 10.1912 68.6977 10.3825 69.0386 10.6249C69.3833 10.8636 69.6674 11.1704 69.8909 11.5454C70.1144 11.9204 70.2261 12.3806 70.2261 12.9261C70.2261 13.5549 70.0613 14.1231 69.7318 14.6306C69.406 15.1382 68.9288 15.5416 68.3 15.8409C67.675 16.1401 66.9155 16.2897 66.0216 16.2897C65.1882 16.2897 64.4666 16.1553 63.8568 15.8863C63.2507 15.6174 62.7735 15.2424 62.425 14.7613C62.0803 14.2803 61.8852 13.7215 61.8398 13.0852H63.2943C63.3322 13.5246 63.4799 13.8882 63.7375 14.1761C63.9988 14.4602 64.3284 14.6723 64.7261 14.8124C65.1276 14.9488 65.5595 15.017 66.0216 15.017C66.5595 15.017 67.0424 14.9299 67.4704 14.7556C67.8985 14.5776 68.2375 14.3314 68.4875 14.017C68.7375 13.6988 68.8625 13.3276 68.8625 12.9034C68.8625 12.517 68.7545 12.2026 68.5386 11.9602C68.3227 11.7178 68.0386 11.5208 67.6863 11.3693C67.3341 11.2178 66.9534 11.0852 66.5443 10.9715L65.1125 10.5624C64.2034 10.3011 63.4837 9.92798 62.9534 9.44313C62.4231 8.95828 62.1579 8.32381 62.1579 7.53972C62.1579 6.8882 62.3341 6.32002 62.6863 5.83517C63.0424 5.34654 63.5197 4.96775 64.1182 4.69881C64.7204 4.42608 65.3928 4.28972 66.1352 4.28972C66.8852 4.28972 67.5519 4.42419 68.1352 4.69313C68.7185 4.95828 69.1807 5.32192 69.5216 5.78404C69.8663 6.24616 70.0481 6.77078 70.067 7.3579H68.7034Z" fill="#959595"/>
<path d="M72.1452 16.0852V4.44881H76.7361C77.6186 4.44881 78.3705 4.61737 78.9917 4.95449C79.613 5.28783 80.0864 5.75184 80.4122 6.34654C80.7417 6.93745 80.9065 7.61927 80.9065 8.39199C80.9065 9.16472 80.7399 9.84654 80.4065 10.4374C80.0732 11.0284 79.5902 11.4886 78.9577 11.8181C78.3289 12.1477 77.5675 12.3124 76.6736 12.3124H73.7474V10.3409H76.2758C76.7493 10.3409 77.1395 10.2594 77.4463 10.0965C77.7569 9.92987 77.988 9.7007 78.1395 9.40904C78.2948 9.11358 78.3724 8.77457 78.3724 8.39199C78.3724 8.00563 78.2948 7.66851 78.1395 7.38063C77.988 7.08896 77.7569 6.86358 77.4463 6.70449C77.1357 6.54161 76.7417 6.46017 76.2645 6.46017H74.6054V16.0852H72.1452ZM83.1665 16.0852H80.5301L84.5471 4.44881H87.7176L91.729 16.0852H89.0926L86.1778 7.1079H86.0869L83.1665 16.0852ZM83.0017 11.5113H89.229V13.4318H83.0017V11.5113ZM91.2602 4.44881H94.0159L96.6693 9.46017H96.7829L99.4363 4.44881H102.192L97.9477 11.9715V16.0852H95.5045V11.9715L91.2602 4.44881Z" fill="white"/>
<path fill-rule="evenodd" clip-rule="evenodd" d="M112.149 13.8617L112.146 13.8662L112.143 13.8707C111.965 14.1227 111.566 14.1968 111.254 13.9765C111.004 13.8002 110.929 13.4074 111.142 13.097C111.459 12.6927 111.689 12.2201 111.841 11.758C111.998 11.277 112.071 10.7305 112.069 10.1944C112.066 9.65837 111.987 9.11261 111.824 8.63332C111.668 8.17294 111.433 7.7028 111.111 7.30194C110.895 6.99376 110.966 6.60016 111.214 6.42122C111.523 6.19768 111.923 6.26749 112.103 6.5176L112.107 6.52209L112.11 6.5265C112.51 7.05404 112.838 7.64017 113.034 8.21523C113.241 8.8917 113.372 9.54607 113.376 10.1875C113.379 10.8624 113.315 11.5013 113.067 12.1302C112.797 12.8151 112.536 13.34 112.149 13.8617ZM115.042 15.1145L115.049 15.1034L115.057 15.0919C115.943 13.6713 116.455 11.957 116.445 10.1711C116.436 8.38569 115.906 6.67737 115.005 5.26645C114.81 4.95669 114.897 4.59044 115.227 4.3526C115.448 4.19287 115.863 4.24943 116.109 4.57952C117.127 6.19415 117.742 8.14599 117.752 10.1642C117.763 12.2512 117.17 14.1397 116.169 15.7661C115.937 16.085 115.582 16.1743 115.277 15.9936C114.945 15.7507 114.885 15.337 115.042 15.1145ZM120.232 2.45723L120.241 2.47448L120.251 2.49097C121.63 4.73918 122.396 7.33242 122.411 10.1394C122.426 12.945 121.688 15.5451 120.335 17.8072C120.127 18.1409 119.777 18.235 119.421 18.0697C119.098 17.859 119.011 17.5098 119.18 17.1571C120.332 15.1124 121.047 12.703 121.034 10.1467C121.02 7.60175 120.355 5.19617 119.103 3.15136C118.934 2.80221 119.018 2.45448 119.337 2.24136C119.723 2.05724 120.098 2.1922 120.232 2.45723ZM124.315 0.317655L124.321 0.32944L124.328 0.340875C125.999 3.2294 126.981 6.53184 127 10.1149C127.019 13.6943 126.074 17.0039 124.437 19.9079C124.229 20.2378 123.881 20.3302 123.527 20.1656C123.205 19.9556 123.117 19.6079 123.284 19.2564C124.861 16.5648 125.711 13.4463 125.693 10.1219C125.675 6.78886 124.718 3.6825 123.189 1.0174C122.997 0.628348 123.132 0.247314 123.4 0.111823C123.792 -0.0870519 124.179 0.0479481 124.315 0.317655Z" fill="white"/>
</svg>
